<svg xmlns="http://www.w3.org/2000/svg" viewBox="0 0 96 96">
  <rect width="96" height="96" rx="20" fill="#34464D"/>
  <g fill="#82A2AF" transform="translate(10 0) scale(0.98)">
    <path d="M75 6C45 13 28 26 30 40c0 4 3 8 8 11-4-5-5-10-4-14C37 25 52 15 75 6Z"/>
    <path d="M75 6C50 16 37 28 38 40c0 4 3 7 7 9-3-4-3-8-2-12C46 27 57 17 75 6Z" opacity="0.72"/>
    <path d="M75 6C56 19 47 30 48 39c0 4 2 6 5 8-2-4-2-7-1-10C55 29 62 20 75 6Z" opacity="0.44"/>
    <g transform="rotate(180 39 48)">
      <path d="M75 6C45 13 28 26 30 40c0 4 3 8 8 11-4-5-5-10-4-14C37 25 52 15 75 6Z"/>
      <path d="M75 6C50 16 37 28 38 40c0 4 3 7 7 9-3-4-3-8-2-12C46 27 57 17 75 6Z" opacity="0.72"/>
      <path d="M75 6C56 19 47 30 48 39c0 4 2 6 5 8-2-4-2-7-1-10C55 29 62 20 75 6Z" opacity="0.44"/>
    </g>
  </g>
</svg>
